<svg width="120" height="52" viewBox="0 0 120 52" fill="none" xmlns="http://www.w3.org/2000/svg">
<path d="M35.7284 19.454H43.2206L48.125 36.41H42.3333L41.6926 33.1568H37.3057L36.591 36.41H31.0458L35.7284 19.454ZM41.1011 30.1254L39.4991 22.7072L37.8232 30.1254H41.1011ZM55.7458 36.8043C53.4291 36.8043 51.4739 36.3771 49.8802 35.5228L51.1125 31.7027C52.8048 32.3107 54.3164 32.6146 55.6472 32.6146C56.3701 32.6146 56.8959 32.5325 57.2245 32.3682C57.5696 32.1874 57.7421 31.9246 57.7421 31.5795C57.7421 31.3495 57.6517 31.1523 57.471 30.988C57.2902 30.8073 56.9288 30.6101 56.3866 30.3965C55.8444 30.1829 55.0311 29.9201 53.9467 29.6079C52.6158 29.2136 51.5807 28.5728 50.8414 27.6856C50.102 26.7819 49.7323 25.7468 49.7323 24.5802C49.7323 22.7729 50.3238 21.4092 51.5068 20.4891C52.7062 19.5526 54.3164 19.0843 56.3373 19.0843C57.3888 19.0843 58.4239 19.1993 59.4426 19.4294C60.4613 19.643 61.3649 19.9633 62.1536 20.3905L60.8227 24.112C59.9026 23.7998 59.0976 23.578 58.4075 23.4466C57.7339 23.2987 57.0766 23.2247 56.4359 23.2247C55.3515 23.2247 54.8093 23.5205 54.8093 24.112C54.8093 24.4077 54.9818 24.6624 55.3268 24.876C55.6883 25.0731 56.4194 25.3278 57.5203 25.64C59.2454 26.1 60.5516 26.8065 61.4389 27.7595C62.3261 28.696 62.7697 29.8215 62.7697 31.1359C62.7697 32.9597 62.1782 34.3644 60.9953 35.3503C59.8123 36.3196 58.0625 36.8043 55.7458 36.8043ZM68.4578 23.2001H64.9335V19.454H77.7244V23.2001H74.2001V36.41H68.4578V23.2001ZM80.7841 19.454H92.6878V23.2001H86.7729V26.2808H92.1703V29.3861H86.7729V32.6639H92.6878V36.41H80.7841V19.454ZM96.1807 19.454H101.134L107.887 28.5974V19.454H112.299V36.41H107.37L100.568 27.587V36.41H96.1807V19.454Z" fill="#28A745"/>
<path d="M38.0588 48.7893H36.9568V45.0585C36.9568 44.6606 36.93 44.3258 36.8764 44.0541C36.8267 43.7786 36.7215 43.5567 36.5608 43.3883C36.4039 43.2199 36.18 43.0994 35.8892 43.0267C35.6022 42.9502 35.2234 42.9119 34.7528 42.9119C34.2362 42.9119 33.8115 42.9559 33.4786 43.0439C33.1457 43.1281 32.8836 43.2486 32.6922 43.4055C32.5009 43.5586 32.367 43.7442 32.2905 43.9623C32.2178 44.1804 32.1814 44.4234 32.1814 44.6912V48.7893H31.0794V42.1772H32.1814V43.2219C32.1852 43.2104 32.2025 43.1721 32.2331 43.1071C32.2637 43.042 32.3173 42.9655 32.3938 42.8775C32.4741 42.7856 32.5813 42.6881 32.7152 42.5848C32.853 42.4814 33.029 42.3858 33.2432 42.2978C33.4614 42.2098 33.7235 42.1371 34.0296 42.0797C34.3357 42.0223 34.6992 41.9936 35.1201 41.9936C35.5334 41.9936 35.8911 42.0204 36.1934 42.0739C36.4995 42.1237 36.7597 42.2002 36.974 42.3035C37.1921 42.403 37.3681 42.5293 37.5021 42.6823C37.6398 42.8316 37.7489 43.0037 37.8292 43.1989C37.8943 43.0956 37.9957 42.975 38.1334 42.8373C38.2712 42.6995 38.4625 42.5675 38.7074 42.4413C38.9561 42.315 39.266 42.2098 39.6372 42.1256C40.0084 42.0376 40.4618 41.9936 40.9975 41.9936C41.4375 41.9936 41.8144 42.0242 42.1282 42.0854C42.4458 42.1428 42.7137 42.2308 42.9318 42.3494C43.1499 42.4642 43.324 42.6077 43.4541 42.7799C43.588 42.9521 43.6894 43.153 43.7583 43.3826C43.831 43.6083 43.8788 43.8628 43.9018 44.1459C43.9247 44.4253 43.9362 44.7295 43.9362 45.0585V48.7893H42.8342V45.0585C42.8342 44.6606 42.8074 44.3258 42.7538 44.0541C42.7041 43.7786 42.5989 43.5567 42.4382 43.3883C42.2813 43.2199 42.0574 43.0994 41.7666 43.0267C41.4796 42.9502 41.1008 42.9119 40.6302 42.9119C40.1136 42.9119 39.6889 42.9559 39.356 43.0439C39.0231 43.1281 38.761 43.2486 38.5696 43.4055C38.3783 43.5586 38.2444 43.7442 38.1679 43.9623C38.0952 44.1804 38.0588 44.4234 38.0588 44.6912V48.7893ZM59.1954 48.9156C58.4607 48.9156 57.837 48.8658 57.3243 48.7663C56.8115 48.663 56.3944 48.487 56.073 48.2383C55.7516 47.9896 55.5182 47.6567 55.3728 47.2396C55.2274 46.8225 55.1547 46.2983 55.1547 45.6669C55.1547 44.9437 55.2274 44.3468 55.3728 43.8762C55.5182 43.4017 55.7516 43.0248 56.073 42.7455C56.3944 42.4661 56.8115 42.271 57.3243 42.16C57.837 42.0491 58.4607 41.9936 59.1954 41.9936C59.7196 41.9936 60.173 42.0318 60.5557 42.1084C60.9422 42.1849 61.2712 42.2959 61.5429 42.4413C61.8184 42.5867 62.0403 42.7627 62.2087 42.9693C62.3809 43.1759 62.5148 43.394 62.6105 43.6236C62.71 43.8494 62.7769 44.1153 62.8114 44.4214C62.8496 44.7276 62.8688 45.0509 62.8688 45.3914L62.7769 45.7588H56.2567C56.2567 46.2639 56.3064 46.679 56.4059 47.0043C56.5054 47.3257 56.6699 47.561 56.8995 47.7103C57.1291 47.8595 57.4314 47.9551 57.8064 47.9972C58.1814 48.0355 58.6444 48.0546 59.1954 48.0546C59.7005 48.0546 60.1176 48.0412 60.4466 48.0145C60.7795 47.9838 61.0436 47.9284 61.2387 47.848C61.4338 47.7677 61.5697 47.6567 61.6462 47.5151C61.7266 47.3697 61.7667 47.1822 61.7667 46.9526H62.8688C62.8688 47.3085 62.8056 47.6127 62.6793 47.8652C62.5569 48.1139 62.3522 48.3167 62.0652 48.4736C61.7782 48.6267 61.3994 48.7376 60.9288 48.8065C60.4619 48.8792 59.8841 48.9156 59.1954 48.9156ZM59.1954 42.9119C58.828 42.9119 58.499 42.9196 58.2082 42.9349C57.9212 42.9502 57.6686 42.9846 57.4505 43.0382C57.2363 43.0879 57.0526 43.1625 56.8995 43.262C56.7465 43.3577 56.6221 43.4725 56.5265 43.6064C56.4346 43.7365 56.3657 43.9221 56.3198 44.1632C56.2777 44.4004 56.2567 44.6874 56.2567 45.0241H61.7667C61.7667 44.5764 61.7189 44.2263 61.6233 43.9737C61.5276 43.7174 61.3765 43.5069 61.1698 43.3424C60.9632 43.1778 60.6973 43.065 60.372 43.0037C60.0468 42.9425 59.6546 42.9119 59.1954 42.9119ZM80.6993 45.8506C80.6993 46.4131 80.6534 46.8837 80.5616 47.2626C80.4697 47.6376 80.3147 47.9379 80.0966 48.1637C79.8824 48.3894 79.5992 48.5502 79.2472 48.6458C78.8951 48.7415 78.4608 48.7893 77.9443 48.7893C77.443 48.7893 77.0221 48.751 76.6816 48.6745C76.341 48.598 76.0655 48.4679 75.855 48.2842C75.6446 48.1005 75.4934 47.8557 75.4016 47.5495C75.3098 47.2434 75.2639 46.8608 75.2639 46.4016V43.0841H73.9036V42.1772H75.2639V40.3693H76.3659V42.1772H80.5156V43.0841H76.3659V46.4016C76.3659 46.769 76.3927 47.0521 76.4462 47.2511C76.5036 47.4501 76.5935 47.5955 76.716 47.6873C76.8384 47.7791 76.9991 47.8327 77.1981 47.848C77.4009 47.8633 77.6477 47.871 77.9385 47.871C78.1681 47.871 78.3728 47.8671 78.5527 47.8595C78.7363 47.8518 78.8951 47.8289 79.0291 47.7906C79.1668 47.7485 79.2835 47.6873 79.3792 47.6069C79.4748 47.5228 79.5514 47.4061 79.6088 47.2568C79.67 47.1076 79.714 46.9201 79.7408 46.6943C79.7676 46.4648 79.781 46.1835 79.781 45.8506H80.6993ZM98.3175 47.8824C98.306 47.9284 98.2199 48.0432 98.0592 48.2268C97.9444 48.3646 97.7913 48.487 97.6 48.5942C97.4087 48.6975 97.1523 48.7778 96.8309 48.8352C96.5133 48.8964 96.0943 48.9271 95.5739 48.9271C94.8813 48.9271 94.2902 48.8907 93.8004 48.818C93.3106 48.7491 92.9107 48.642 92.6008 48.4966C92.2909 48.3474 92.0632 48.1579 91.9178 47.9284C91.7762 47.6988 91.7054 47.4252 91.7054 47.1076C91.7054 46.7747 91.7437 46.4934 91.8202 46.2639C91.9006 46.0305 92.0154 45.8353 92.1646 45.6784C92.3176 45.5215 92.5013 45.3991 92.7156 45.3111C92.9299 45.2231 93.1728 45.1561 93.4445 45.1102C93.72 45.0643 94.0204 45.0356 94.3456 45.0241C94.6709 45.0126 95.0172 45.0069 95.3845 45.0069C95.9087 45.0069 96.3469 45.0298 96.6989 45.0758C97.0509 45.1178 97.3379 45.1733 97.5598 45.2422C97.7856 45.3073 97.9559 45.378 98.0707 45.4546C98.1855 45.5311 98.2677 45.6019 98.3175 45.6669C98.3175 45.2384 98.2983 44.873 98.2601 44.5707C98.2256 44.2684 98.1663 44.0158 98.0822 43.813C98.0018 43.6102 97.8966 43.4495 97.7665 43.3309C97.6364 43.2085 97.4757 43.1166 97.2843 43.0554C97.0968 42.9942 96.8768 42.9559 96.6243 42.9406C96.3717 42.9215 96.0828 42.9119 95.7576 42.9119C95.2525 42.9119 94.8335 42.9253 94.5006 42.9521C94.1677 42.975 93.9037 43.0229 93.7085 43.0956C93.5134 43.1683 93.3756 43.2697 93.2953 43.3998C93.2149 43.5261 93.1748 43.6925 93.1748 43.8991H92.0727C92.0727 43.5509 92.134 43.2563 92.2564 43.0152C92.3827 42.7742 92.5893 42.579 92.8763 42.4298C93.1671 42.2767 93.5478 42.1658 94.0185 42.0969C94.4891 42.028 95.0688 41.9936 95.7576 41.9936C96.4311 41.9936 97.0012 42.0491 97.468 42.16C97.9348 42.271 98.3117 42.4661 98.5987 42.7455C98.8895 43.0248 99.0981 43.4017 99.2243 43.8762C99.3544 44.3468 99.4195 44.9437 99.4195 45.6669V48.7893H98.3175V47.8824ZM95.7576 48.0546C96.2436 48.0546 96.6492 48.0317 96.9744 47.9858C97.3035 47.9398 97.5675 47.871 97.7665 47.7791C97.9654 47.6873 98.107 47.5725 98.1912 47.4348C98.2754 47.297 98.3175 47.1363 98.3175 46.9526C98.3175 46.769 98.2677 46.614 98.1682 46.4877C98.0726 46.3576 97.91 46.2524 97.6804 46.172C97.4546 46.0917 97.1542 46.0343 96.7793 45.9998C96.4043 45.9616 95.9413 45.9424 95.3903 45.9424C94.8393 45.9424 94.3935 45.952 94.0529 45.9711C93.7162 45.9903 93.456 46.0343 93.2723 46.1032C93.0887 46.172 92.9643 46.2734 92.8993 46.4074C92.838 46.5413 92.8074 46.723 92.8074 46.9526C92.8074 47.1822 92.8399 47.3697 92.905 47.5151C92.9739 47.6567 93.1116 47.7677 93.3183 47.848C93.5249 47.9284 93.8214 47.9838 94.2079 48.0145C94.5982 48.0412 95.1148 48.0546 95.7576 48.0546ZM111.195 39.9732H112.297V48.7893H111.195V39.9732Z" fill="#28A745"/>
<g clip-path="url(#clip0)">
<path d="M8.50611 26.8725V17.3334L0 26.3018V48.4454H8.50611V40.2924C6.48715 38.5803 5.22944 36.0202 5.34528 33.2319C5.44457 30.7207 6.65264 28.4379 8.50611 26.8725Z" fill="#28A745"/>
<path d="M9.87964 8.96839V25.9104C11.2035 25.1603 12.726 24.7201 14.3478 24.7201C15.8041 24.7201 17.1777 25.0625 18.3857 25.6821V17.3171V3.05176e-05L9.87964 8.96839Z" fill="#28A745"/>
<path d="M14.2982 42.4611C12.693 42.4448 11.1871 42.0208 9.89624 41.2708V48.4454H18.4023V41.499C17.1612 42.1024 15.7711 42.4611 14.2982 42.4611Z" fill="#28A745"/>
<path d="M19.6931 10.8762V26.4975C21.7783 28.0302 23.1684 30.4109 23.3339 33.0525C23.5159 36.0855 22.0431 38.9227 19.6931 40.6675V41.9883V48.4455H28.1992V44.6951V41.9883V40.0641V24.1005V19.8609L19.6931 10.8762Z" fill="#28A745"/>
<path d="M21.7617 34.4059V32.7753H20.5867C20.5039 32.2372 20.355 31.7154 20.1564 31.2262L21.1824 30.6392L20.355 29.2368L19.3124 29.8239C18.9815 29.3999 18.5843 29.0249 18.154 28.715L18.7663 27.6715L17.3431 26.8561L16.7308 27.8997C16.2343 27.7041 15.7213 27.5736 15.1752 27.5084V26.2854H13.5203V27.5084C12.9742 27.5736 12.4612 27.7204 11.9813 27.916L11.3524 26.8398L9.92923 27.6551L10.5581 28.7313C10.1444 29.0575 9.76374 29.4325 9.43277 29.8402L8.35709 29.2205L7.52965 30.6229L8.60532 31.2425C8.40674 31.7154 8.2578 32.2372 8.1916 32.759H6.95044V34.3896H8.17505C8.24125 34.9277 8.37364 35.4495 8.57223 35.9223L7.52965 36.5094L8.35709 37.9117L9.38312 37.3247C9.7141 37.7486 10.0947 38.14 10.525 38.4661L9.92923 39.4608L11.3524 40.2761L11.9316 39.2814C12.4281 39.4934 12.9577 39.6401 13.5203 39.7054V40.8468H15.1752V39.7217C15.7379 39.6564 16.2674 39.5097 16.7805 39.314L17.3431 40.2761L18.7663 39.4608L18.2037 38.4987C18.6505 38.1726 19.0311 37.7812 19.3786 37.341L20.355 37.8954L21.1824 36.4931L20.1895 35.9223C20.3881 35.4332 20.537 34.8951 20.6032 34.357L21.7617 34.4059ZM14.3809 35.8245C13.1563 35.8245 12.1633 34.8461 12.1633 33.6395C12.1633 32.4328 13.1563 31.4545 14.3809 31.4545C15.6055 31.4545 16.5984 32.4328 16.5984 33.6395C16.5984 34.8461 15.6055 35.8245 14.3809 35.8245Z" fill="#28A745"/>
</g>
<defs>
<clipPath id="clip0">
<rect width="28.1992" height="48.4291" fill="white"/>
</clipPath>
</defs>
</svg>
