<svg width="70" height="70" viewBox="0 0 70 70" fill="none" xmlns="http://www.w3.org/2000/svg">
<circle cx="35" cy="35" r="35" fill="#50D69D"/>
<path d="M51.8542 22.5091L44.2478 22.0017C43.8711 21.9795 43.4944 22.1781 43.3057 22.5313C43.0967 22.8623 43.0967 23.3037 43.285 23.6568L44.9808 26.7683L43.243 27.8277L43.8711 28.2027C44.1851 28.4013 44.3945 28.7766 44.3945 29.1737V29.6811L46.0276 28.6881L47.4717 31.292C47.6604 31.6452 47.9951 31.8438 48.3721 31.8438H48.4138C48.7908 31.8438 49.1465 31.6009 49.3142 31.2481L52.7333 24.0979C52.8799 23.7669 52.8799 23.3919 52.6916 23.0609C52.5239 22.7519 52.2099 22.5313 51.8542 22.5091Z" fill="white"/>
<path d="M26.2673 28.2027L26.8953 27.8277L25.1579 26.7683L26.8536 23.6568C27.042 23.3037 27.042 22.8623 26.8326 22.5313C26.644 22.1781 26.2463 21.9795 25.8906 22.0017L18.2844 22.5091C17.9286 22.5313 17.6146 22.7519 17.4473 23.0609C17.2586 23.3919 17.2586 23.7669 17.4053 24.0982L20.8246 31.2481C20.992 31.6012 21.3479 31.8438 21.7247 31.8438H21.7664C22.1433 31.8438 22.4784 31.6455 22.6667 31.2923L24.1111 28.6881L25.7439 29.6811V29.1737C25.7439 28.7766 25.9533 28.4013 26.2673 28.2027Z" fill="white"/>
<path d="M35.0693 45.3876C34.9144 45.3876 34.7401 45.3456 34.585 45.2619L34.1007 44.9688V46.4346H31.1952C30.8463 46.4346 30.5171 46.6441 30.3426 46.9792C30.1683 47.3351 30.1877 47.7333 30.3814 48.0682L34.2558 54.3516C34.4495 54.6448 34.7401 54.8125 35.0693 54.8125C35.3985 54.8125 35.6893 54.6448 35.8828 54.3516L39.7572 48.0682C39.9509 47.7333 39.9703 47.3354 39.796 46.9792C39.6215 46.6441 39.2923 46.4346 38.9437 46.4346H36.0379V44.9688L35.5536 45.2619C35.3985 45.3456 35.2242 45.3876 35.0693 45.3876Z" fill="white"/>
<path d="M36.3088 44.4506L44.057 39.9092C44.367 39.7155 44.5736 39.3495 44.5736 38.9622V29.7714L36.3088 34.7436V44.4506Z" fill="white"/>
<path d="M42.9208 27.8806L35.5662 23.0041C35.2484 22.8167 34.8904 22.8167 34.5723 23.0041L27.2178 27.8806L35.0693 33.2254L42.9208 27.8806Z" fill="white"/>
<path d="M25.5649 29.7714V38.962C25.5649 39.3496 25.7716 39.7153 26.0815 39.909L33.8297 44.4506V34.7435L25.5649 29.7714Z" fill="white"/>
</svg>
