<svg width="70" height="70" viewBox="0 0 70 70" fill="none" xmlns="http://www.w3.org/2000/svg">
<ellipse cx="35.5" cy="35" rx="32.5" ry="32" fill="#50D69D"/>
<path d="M70 35C70 54.33 54.33 70 35 70C15.67 70 0 54.33 0 35C0 15.67 15.67 0 35 0C54.33 0 70 15.67 70 35ZM3.85496 35C3.85496 52.2009 17.7991 66.145 35 66.145C52.2009 66.145 66.145 52.2009 66.145 35C66.145 17.7991 52.2009 3.85496 35 3.85496C17.7991 3.85496 3.85496 17.7991 3.85496 35Z" fill="#50D69D"/>
<g clip-path="url(#clip0)">
<path d="M48.5915 38.3957C47.737 37.9539 47.5631 37.0061 48.2048 36.2896L51.648 32.446C52.2899 31.7295 52.0288 31.1794 51.0679 31.2235L48.7848 31.3283C47.8239 31.3724 47.1994 30.6383 47.3971 29.6968L48.4576 24.6481C48.6554 23.7066 48.1546 23.3611 47.3447 23.8804L45.4163 25.1165C44.6065 25.6357 43.6992 25.3124 43.4 24.3982L41.7956 19.4954C41.4964 18.5811 40.8898 18.532 40.4475 19.3864L39.3972 21.4154C38.9549 22.2698 38.0068 22.4437 37.29 21.8022L33.4447 18.3605C32.7279 17.719 32.1776 17.9803 32.2218 18.9412L32.3265 21.2214C32.3707 22.1823 31.6364 22.8069 30.695 22.6095L25.642 21.5496C24.7006 21.3521 24.3554 21.8529 24.8749 22.6625L26.1111 24.5887C26.6307 25.3983 26.3077 26.3052 25.3933 26.6041L20.4865 28.2082C19.5721 28.507 19.5231 29.1131 20.3777 29.5549L22.4087 30.6051C23.2632 31.0469 23.4371 31.9947 22.7954 32.7112L19.3519 36.5549C18.7101 37.2714 18.9711 37.8215 19.9321 37.7774L22.215 37.6727C23.1759 37.6287 23.8005 38.3629 23.6027 39.3043L22.5426 44.3526C22.3449 45.2941 22.8457 45.6394 23.6555 45.1202L25.5834 43.8841C26.3932 43.3649 27.3006 43.6881 27.5996 44.6024L29.2043 49.5058C29.5035 50.42 30.11 50.4691 30.5523 49.6148L31.6029 47.5855C32.0451 46.7311 32.9934 46.5572 33.7102 47.1987L37.5554 50.6405C38.2721 51.282 38.8225 51.0207 38.7784 50.0598L38.6737 47.7798C38.6296 46.8189 39.3637 46.1942 40.3052 46.3917L45.3576 47.4515C46.299 47.649 46.6442 47.1481 46.1247 46.3386L44.8885 44.4122C44.3689 43.6027 44.692 42.6956 45.6063 42.3968L50.5135 40.7926C51.4279 40.4938 51.4768 39.8877 50.6223 39.4459L48.5915 38.3957ZM35.3334 43.1311C30.6181 43.1311 26.7819 39.2966 26.7819 34.5833C26.7819 29.8703 30.6179 26.0362 35.3334 26.0362C40.0484 26.0364 43.8844 29.8706 43.8844 34.5833C43.8844 39.2966 40.0484 43.1311 35.3334 43.1311Z" fill="white"/>
<path d="M35.3333 27.7838C31.5819 27.7838 28.53 30.8338 28.53 34.5829C28.53 38.3321 31.5819 41.3825 35.3333 41.3825C39.0844 41.3825 42.1363 38.3321 42.1363 34.5829C42.1363 30.8341 39.0844 27.784 35.3333 27.7838ZM35.3333 36.5431C34.2503 36.5431 33.3721 35.666 33.3721 34.5828C33.3721 33.5008 34.2503 32.6229 35.3333 32.6229C36.4165 32.6229 37.2939 33.5007 37.2939 34.5828C37.2939 35.6659 36.4165 36.5431 35.3333 36.5431Z" fill="white"/>
</g>
<defs>
<clipPath id="clip0">
<rect width="33" height="33" fill="white" transform="translate(19 18)"/>
</clipPath>
</defs>
</svg>
