<svg width="25" height="26" viewBox="0 0 25 26" fill="none" xmlns="http://www.w3.org/2000/svg">
<path d="M12.489 0.106934C5.60261 0.106934 0 5.71446 0 12.6069C0 19.4989 5.60261 25.1069 12.489 25.1069C19.375 25.1069 24.9781 19.4989 24.9781 12.6069C24.9781 5.71446 19.376 0.106934 12.489 0.106934ZM15.5949 13.047H13.5631C13.5631 16.2961 13.5631 20.2954 13.5631 20.2954H10.5522C10.5522 20.2954 10.5522 16.3349 10.5522 13.047H9.12103V10.4852H10.5522V8.82813C10.5522 7.64137 11.1157 5.78697 13.5907 5.78697L15.8218 5.79553V8.28233C15.8218 8.28233 14.4661 8.28233 14.2025 8.28233C13.9389 8.28233 13.5641 8.41425 13.5641 8.98019V10.4857H15.858L15.5949 13.047Z" fill="#A5A5A5"/>
</svg>
