<svg width="20" height="18" viewBox="0 0 20 18" fill="none" xmlns="http://www.w3.org/2000/svg">
<path fill-rule="evenodd" clip-rule="evenodd" d="M18.0129 12.5C16.7618 12.5 15.5608 12.3 14.4398 11.93C14.0895 11.82 13.6992 11.9 13.4189 12.17L11.217 14.37C8.38451 12.93 6.06248 10.62 4.62122 7.78L6.82314 5.57C7.10339 5.31 7.18346 4.92 7.07336 4.57C6.70304 3.45 6.50286 2.25 6.50286 1C6.50286 0.45 6.05247 0 5.50199 0H1.99892C1.44844 0 0.998047 0.45 0.998047 1C0.998047 10.39 8.61471 18 18.0129 18C18.5634 18 19.0138 17.55 19.0138 17V13.5C19.0138 12.95 18.5634 12.5 18.0129 12.5ZM17.0121 9H19.0138C19.0138 4.03 14.9803 0 10.0059 0V2C13.8793 2 17.0121 5.13 17.0121 9ZM15.0103 9H13.0086C13.0086 7.34 11.6674 6 10.0059 6V4C12.7683 4 15.0103 6.24 15.0103 9Z" fill="white" fill-opacity="0.54"/>
</svg>
