<svg width="26" height="26" viewBox="0 0 26 26" fill="none" xmlns="http://www.w3.org/2000/svg">
<path d="M12.5369 0.106934C5.63982 0.106934 0.0478516 5.70381 0.0478516 12.6069C0.0478516 19.5101 5.63982 25.1069 12.5369 25.1069C19.434 25.1069 25.0259 19.5101 25.0259 12.6069C25.0259 5.70227 19.434 0.106934 12.5369 0.106934ZM18.7502 9.80066L18.7595 10.1991C18.7595 14.2678 15.667 18.9554 10.0109 18.9554C8.27498 18.9554 6.65919 18.446 5.2979 17.5725C5.53834 17.6006 5.7834 17.6163 6.03165 17.6163C7.47258 17.6163 8.79797 17.1241 9.85016 16.2991C8.50448 16.2741 7.36951 15.3834 6.97768 14.1616C7.16656 14.1975 7.35704 14.2147 7.55685 14.2147C7.83786 14.2147 8.10947 14.1788 8.36706 14.1085C6.96048 13.8241 5.90049 12.582 5.90049 11.0913V11.0523C6.31573 11.2835 6.78875 11.421 7.293 11.4382C6.46872 10.8867 5.92545 9.94447 5.92545 8.87728C5.92545 8.31323 6.07689 7.7851 6.34069 7.33043C7.85655 9.19292 10.1233 10.4179 12.6789 10.546C12.6258 10.321 12.5993 10.0851 12.5993 9.8445C12.5993 8.14608 13.9762 6.76792 15.6747 6.76792C16.5583 6.76792 17.3576 7.14133 17.9196 7.73977C18.619 7.60068 19.2778 7.34446 19.8726 6.99289C19.6431 7.71165 19.156 8.31477 18.5206 8.69599C19.1404 8.62255 19.7352 8.45534 20.2863 8.21161C19.8742 8.82722 19.3512 9.36942 18.7502 9.80066Z" fill="#A5A5A5"/>
</svg>
