<svg width="26" height="26" viewBox="0 0 26 26" fill="none" xmlns="http://www.w3.org/2000/svg">
<path d="M12.5883 0.106934H12.5821C5.69596 0.106934 0.0961914 5.71318 0.0961914 12.6069C0.0961914 15.3413 0.976668 17.8757 2.47379 19.9335L0.917345 24.5772L5.71782 23.0413C7.69265 24.3507 10.0484 25.1069 12.5883 25.1069C19.4745 25.1069 25.0743 19.4991 25.0743 12.6069C25.0743 5.71475 19.4745 0.106934 12.5883 0.106934ZM19.8554 17.7585C19.5541 18.6101 18.3583 19.3163 17.4044 19.5226C16.7519 19.6616 15.8995 19.7726 13.0301 18.5819C9.35993 17.0601 6.99638 13.3272 6.81217 13.0851C6.63576 12.8429 5.3291 11.1085 5.3291 9.31475C5.3291 7.521 6.23924 6.64756 6.6061 6.27256C6.9074 5.96475 7.4054 5.82412 7.8831 5.82412C8.03766 5.82412 8.1766 5.83193 8.30149 5.83818C8.66835 5.85381 8.85257 5.87568 9.09454 6.45537C9.39584 7.18193 10.1296 8.97568 10.217 9.16006C10.306 9.34443 10.395 9.59443 10.2701 9.83662C10.153 10.0866 10.05 10.1976 9.86574 10.4101C9.68153 10.6226 9.50668 10.7851 9.32247 11.0132C9.15386 11.2116 8.96341 11.4241 9.17572 11.7913C9.38803 12.1507 10.1218 13.3491 11.2021 14.3116C12.5962 15.5538 13.7264 15.9507 14.1307 16.1194C14.432 16.2444 14.7911 16.2147 15.0112 15.9804C15.2907 15.6788 15.6357 15.1788 15.9869 14.6866C16.2367 14.3335 16.5521 14.2897 16.883 14.4147C17.2202 14.5319 19.0046 15.4147 19.3715 15.5976C19.7383 15.7819 19.9803 15.8694 20.0693 16.0241C20.1567 16.1788 20.1567 16.9054 19.8554 17.7585Z" fill="#A5A5A5"/>
</svg>
